<?xml version="1.0" encoding="UTF-8" standalone="no"?>
<!-- Created with Inkscape (http://www.inkscape.org/) -->

<svg
   width="64"
   height="64"
   viewBox="0 0 16 16"
   version="1.1"
   id="svg1"
   xmlns="http://www.w3.org/2000/svg"
   xmlns:svg="http://www.w3.org/2000/svg">
  <defs
     id="defs1" />
  <g
     id="layer2">
    <path
       id="rect1"
       style="fill:#2e4d5c;fill-opacity:1;stroke-width:0.327693"
       d="m 1.9667969,0.94482422 c -0.5661971,0 -1.02197268,0.45577558 -1.02197268,1.02197268 V 14.096191 c 0,0.566197 0.45577558,1.021973 1.02197268,1.021973 H 14.096191 c 0.566197,0 1.021973,-0.455776 1.021973,-1.021973 V 1.9667969 c 0,-0.5661971 -0.455776,-1.02197268 -1.021973,-1.02197268 z M 2.2705078,3.7792969 H 13.79248 c 0.210956,0 0.38086,0.1802893 0.38086,0.4038086 v 9.5864255 c 0,0.223519 -0.169904,0.403809 -0.38086,0.403809 H 2.2705078 c -0.2109562,0 -0.3808594,-0.18029 -0.3808594,-0.403809 V 4.1831055 c 0,-0.2235193 0.1699032,-0.4038086 0.3808594,-0.4038086 z" />
    <path
       id="rect4"
       style="fill:#b58551;fill-opacity:1;stroke-width:0.25"
       d="m 4.779093,4.478571 c -0.095794,0 -0.1728955,0.077073 -0.1728955,0.1728672 v 1.1433856 c 0,0.095794 0.077101,0.1728672 0.1728955,0.1728672 h 1.2270703 c 0.095794,0 0.1728955,-0.077073 0.1728955,-0.1728672 V 4.6514382 c 0,-0.095794 -0.077102,-0.1728672 -0.1728955,-0.1728672 z m 2.2021143,0 c -0.095794,0 -0.1728955,0.077073 -0.1728955,0.1728672 v 1.1433856 c 0,0.095794 0.077101,0.1728672 0.1728955,0.1728672 h 1.2276123 c 0.095794,0 0.1728955,-0.077073 0.1728955,-0.1728672 V 4.6514382 c 0,-0.095794 -0.077101,-0.1728672 -0.1728955,-0.1728672 z m 2.2026562,0 c -0.095794,0 -0.1728955,0.077073 -0.1728955,0.1728672 v 1.1433856 c 0,0.095794 0.077101,0.1728672 0.1728955,0.1728672 h 1.2276125 c 0.09579,0 0.172895,-0.077073 0.172895,-0.1728672 V 4.6514382 c 0,-0.095794 -0.0771,-0.1728672 -0.172895,-0.1728672 z m 2.2026565,0 c -0.0958,0 -0.172896,0.077073 -0.172896,0.1728672 v 1.1433856 c 0,0.095794 0.0771,0.1728672 0.172896,0.1728672 h 1.22707 c 0.09579,0 0.172896,-0.077073 0.172896,-0.1728672 V 4.6514382 c 0,-0.095794 -0.0771,-0.1728672 -0.172896,-0.1728672 z m 2.202656,0 c -0.09579,0 -0.172895,0.077073 -0.172895,0.1728672 v 1.1433856 c 0,0.095794 0.0771,0.1728672 0.172895,0.1728672 h 1.22707 c 0.0958,0 0.172896,-0.077073 0.172896,-0.1728672 V 4.6514382 c 0,-0.095794 -0.0771,-0.1728672 -0.172896,-0.1728672 z"
       transform="matrix(0.90090089,0,0,0.95189135,0.19695229,-0.01115986)" />
    <path
       id="rect4-1"
       style="fill:#b58551;fill-opacity:1;stroke-width:0.231511"
       d="m 2.5179664,6.1417323 c -0.086301,0 -0.1557617,0.073365 -0.1557617,0.1645508 v 1.0883788 c 0,0.091186 0.069461,0.1645508 0.1557617,0.1645508 h 1.1054687 c 0.086301,0 0.1557617,-0.073365 0.1557617,-0.1645508 V 6.3062831 c 0,-0.091186 -0.06946,-0.1645508 -0.1557617,-0.1645508 z m 1.984375,0 c -0.086301,0 -0.1557617,0.073365 -0.1557617,0.1645508 v 1.0883788 c 0,0.091186 0.06946,0.1645508 0.1557617,0.1645508 h 1.1054688 c 0.086301,0 0.1557617,-0.073365 0.1557617,-0.1645508 V 6.3062831 c 0,-0.091186 -0.069461,-0.1645508 -0.1557617,-0.1645508 z m 1.9838868,0 c -0.086301,0 -0.1557617,0.073365 -0.1557617,0.1645508 v 1.0883788 c 0,0.091186 0.06946,0.1645508 0.1557617,0.1645508 h 1.105957 c 0.086301,0 0.1557617,-0.073365 0.1557617,-0.1645508 V 6.3062831 c 0,-0.091186 -0.06946,-0.1645508 -0.1557617,-0.1645508 z m 1.9843749,0 c -0.086301,0 -0.1557617,0.073365 -0.1557617,0.1645508 v 1.0883788 c 0,0.091186 0.06946,0.1645508 0.1557617,0.1645508 h 1.1059572 c 0.086297,0 0.1557613,-0.073365 0.1557613,-0.1645508 V 6.3062831 c 0,-0.091186 -0.069459,-0.1645508 -0.1557613,-0.1645508 z m 1.9843749,0 c -0.08631,0 -0.155762,0.073365 -0.155762,0.1645508 v 1.0883788 c 0,0.091186 0.06946,0.1645508 0.155762,0.1645508 h 1.105469 c 0.0863,0 0.155762,-0.073365 0.155762,-0.1645508 V 6.3062831 c 0,-0.091186 -0.06946,-0.1645508 -0.155762,-0.1645508 z m 1.984375,0 c -0.0863,0 -0.155761,0.073365 -0.155761,0.1645508 v 1.0883788 c 0,0.091186 0.06946,0.1645508 0.155761,0.1645508 h 1.105469 c 0.08631,0 0.155762,-0.073365 0.155762,-0.1645508 V 6.3062831 c 0,-0.091186 -0.06946,-0.1645508 -0.155762,-0.1645508 z" />
    <path
       id="rect4-1-4"
       style="fill:#b58551;fill-opacity:1;stroke-width:0.231511"
       d="m 2.5179664,8.0314961 c -0.086301,0 -0.1557617,0.073365 -0.1557617,0.1645508 v 1.0883788 c 0,0.091186 0.069461,0.1645508 0.1557617,0.1645508 h 1.1054687 c 0.086301,0 0.1557617,-0.073365 0.1557617,-0.1645508 V 8.1960469 c 0,-0.091186 -0.06946,-0.1645508 -0.1557617,-0.1645508 z m 1.984375,0 c -0.086301,0 -0.1557617,0.073365 -0.1557617,0.1645508 v 1.0883788 c 0,0.091186 0.06946,0.1645508 0.1557617,0.1645508 h 1.1054688 c 0.086301,0 0.1557617,-0.073365 0.1557617,-0.1645508 V 8.1960469 c 0,-0.091186 -0.069461,-0.1645508 -0.1557617,-0.1645508 z m 1.9838868,0 c -0.086301,0 -0.1557617,0.073365 -0.1557617,0.1645508 v 1.0883788 c 0,0.091186 0.06946,0.1645508 0.1557617,0.1645508 h 1.105957 c 0.086301,0 0.1557617,-0.073365 0.1557617,-0.1645508 V 8.1960469 c 0,-0.091186 -0.06946,-0.1645508 -0.1557617,-0.1645508 z m 1.9843749,0 c -0.086301,0 -0.1557617,0.073365 -0.1557617,0.1645508 v 1.0883788 c 0,0.091186 0.06946,0.1645508 0.1557617,0.1645508 h 1.1059572 c 0.086297,0 0.1557613,-0.073365 0.1557613,-0.1645508 V 8.1960469 c 0,-0.091186 -0.069459,-0.1645508 -0.1557613,-0.1645508 z m 1.9843749,0 c -0.08631,0 -0.155762,0.073365 -0.155762,0.1645508 v 1.0883788 c 0,0.091186 0.06946,0.1645508 0.155762,0.1645508 h 1.105469 c 0.0863,0 0.155762,-0.073365 0.155762,-0.1645508 V 8.1960469 c 0,-0.091186 -0.06946,-0.1645508 -0.155762,-0.1645508 z m 1.984375,0 c -0.0863,0 -0.155761,0.073365 -0.155761,0.1645508 v 1.0883788 c 0,0.091186 0.06946,0.1645508 0.155761,0.1645508 h 1.105469 c 0.08631,0 0.155762,-0.073365 0.155762,-0.1645508 V 8.1960469 c 0,-0.091186 -0.06946,-0.1645508 -0.155762,-0.1645508 z" />
    <path
       id="rect4-1-4-5"
       style="fill:#b58551;fill-opacity:1;stroke-width:0.231511"
       d="m 2.5179664,9.9212598 c -0.086301,0 -0.1557617,0.073365 -0.1557617,0.1645512 v 1.088379 c 0,0.09119 0.069461,0.164551 0.1557617,0.164551 h 1.1054687 c 0.086301,0 0.1557617,-0.07336 0.1557617,-0.164551 v -1.088379 c 0,-0.09119 -0.06946,-0.1645512 -0.1557617,-0.1645512 z m 1.984375,0 c -0.086301,0 -0.1557617,0.073365 -0.1557617,0.1645512 v 1.088379 c 0,0.09119 0.06946,0.164551 0.1557617,0.164551 h 1.1054688 c 0.086301,0 0.1557617,-0.07336 0.1557617,-0.164551 v -1.088379 c 0,-0.09119 -0.069461,-0.1645512 -0.1557617,-0.1645512 z m 1.9838868,0 c -0.086301,0 -0.1557617,0.073365 -0.1557617,0.1645512 v 1.088379 c 0,0.09119 0.06946,0.164551 0.1557617,0.164551 h 1.105957 c 0.086301,0 0.1557617,-0.07336 0.1557617,-0.164551 v -1.088379 c 0,-0.09119 -0.06946,-0.1645512 -0.1557617,-0.1645512 z m 1.9843749,0 c -0.086301,0 -0.1557617,0.073365 -0.1557617,0.1645512 v 1.088379 c 0,0.09119 0.06946,0.164551 0.1557617,0.164551 h 1.1059572 c 0.086297,0 0.1557613,-0.07336 0.1557613,-0.164551 v -1.088379 c 0,-0.09119 -0.069459,-0.1645512 -0.1557613,-0.1645512 z m 1.9843739,0 c -0.08631,0 -0.155762,0.073365 -0.155762,0.1645512 v 1.088379 c 0,0.09119 0.06946,0.164551 0.155762,0.164551 h 1.105469 c 0.0863,0 0.155762,-0.07336 0.155762,-0.164551 v -1.088379 c 0,-0.09119 -0.06946,-0.1645512 -0.155762,-0.1645512 z m 1.984375,0 c -0.0863,0 -0.155761,0.073365 -0.155761,0.1645512 v 1.088379 c 0,0.09119 0.06946,0.164551 0.155761,0.164551 h 1.105469 c 0.08631,0 0.155762,-0.07336 0.155762,-0.164551 v -1.088379 c 0,-0.09119 -0.06946,-0.1645512 -0.155762,-0.1645512 z" />
    <path
       id="rect4-1-4-5-9"
       style="fill:#b58551;fill-opacity:1;stroke-width:0.231511"
       d="m 2.5179664,11.811024 c -0.086301,0 -0.1557617,0.07336 -0.1557617,0.164551 v 1.088379 c 0,0.09119 0.069461,0.164551 0.1557617,0.164551 h 1.1054687 c 0.086301,0 0.1557617,-0.07336 0.1557617,-0.164551 v -1.088379 c 0,-0.09119 -0.06946,-0.164551 -0.1557617,-0.164551 z m 1.984375,0 c -0.086301,0 -0.1557617,0.07337 -0.1557617,0.164551 v 1.088379 c 0,0.09119 0.06946,0.164551 0.1557617,0.164551 h 1.1054688 c 0.086301,0 0.1557617,-0.07336 0.1557617,-0.164551 v -1.088379 c 0,-0.09119 -0.069461,-0.164551 -0.1557617,-0.164551 z m 1.9838868,0 c -0.086301,0 -0.1557617,0.07337 -0.1557617,0.164551 v 1.088379 c 0,0.09119 0.06946,0.164551 0.1557617,0.164551 h 1.105957 c 0.086301,0 0.1557617,-0.07336 0.1557617,-0.164551 v -1.088379 c 0,-0.09119 -0.06946,-0.164551 -0.1557617,-0.164551 z" />
  </g>
</svg>
